<svg width="143" height="43" viewBox="0 0 143 43" fill="none" xmlns="http://www.w3.org/2000/svg">
<rect width="143" height="43" rx="21.5" fill="#BEBEBE"/>
<circle cx="121.5" cy="21.5" r="21.5" fill="#EB5151"/>
<path d="M22.5352 28.4668H29.2734V30H20.6504V15.7812H22.5352V28.4668ZM41.7051 23.3496C41.7051 24.7428 41.4707 25.9603 41.002 27.002C40.5332 28.0371 39.8691 28.8281 39.0098 29.375C38.1504 29.9219 37.1478 30.1953 36.002 30.1953C34.8822 30.1953 33.8893 29.9219 33.0234 29.375C32.1576 28.8216 31.4837 28.0371 31.002 27.0215C30.5267 25.9993 30.2826 24.8177 30.2695 23.4766V22.4512C30.2695 21.084 30.5072 19.8763 30.9824 18.8281C31.4577 17.7799 32.1283 16.9792 32.9941 16.4258C33.8665 15.8659 34.8626 15.5859 35.9824 15.5859C37.1217 15.5859 38.1243 15.8626 38.9902 16.416C39.8626 16.9629 40.5332 17.7604 41.002 18.8086C41.4707 19.8503 41.7051 21.0645 41.7051 22.4512V23.3496ZM39.8398 22.4316C39.8398 20.7454 39.5013 19.4531 38.8242 18.5547C38.1471 17.6497 37.1999 17.1973 35.9824 17.1973C34.7975 17.1973 33.8633 17.6497 33.1797 18.5547C32.5026 19.4531 32.1543 20.7031 32.1348 22.3047V23.3496C32.1348 24.9837 32.4766 26.2695 33.1602 27.207C33.8503 28.138 34.7975 28.6035 36.002 28.6035C37.2129 28.6035 38.1504 28.1641 38.8145 27.2852C39.4785 26.3997 39.8203 25.1335 39.8398 23.4863V22.4316ZM55.0156 28.1348C54.5339 28.8249 53.86 29.3424 52.9941 29.6875C52.1348 30.026 51.1322 30.1953 49.9863 30.1953C48.8275 30.1953 47.7988 29.9251 46.9004 29.3848C46.002 28.8379 45.3053 28.0632 44.8105 27.0605C44.3223 26.0579 44.0716 24.8958 44.0586 23.5742V22.334C44.0586 20.1921 44.5566 18.5319 45.5527 17.3535C46.5553 16.1751 47.9616 15.5859 49.7715 15.5859C51.2559 15.5859 52.4505 15.9668 53.3555 16.7285C54.2604 17.4837 54.8138 18.5579 55.0156 19.9512H53.1406C52.7891 18.0697 51.6693 17.1289 49.7812 17.1289C48.5247 17.1289 47.571 17.5716 46.9199 18.457C46.2754 19.3359 45.9499 20.612 45.9434 22.2852V23.4473C45.9434 25.0423 46.3079 26.3118 47.0371 27.2559C47.7663 28.1934 48.7526 28.6621 49.9961 28.6621C50.6992 28.6621 51.3145 28.584 51.8418 28.4277C52.3691 28.2715 52.8053 28.0078 53.1504 27.6367V24.4434H49.8594V22.9199H55.0156V28.1348ZM69.0879 23.3496C69.0879 24.7428 68.8535 25.9603 68.3848 27.002C67.916 28.0371 67.252 28.8281 66.3926 29.375C65.5332 29.9219 64.5306 30.1953 63.3848 30.1953C62.265 30.1953 61.2721 29.9219 60.4062 29.375C59.5404 28.8216 58.8665 28.0371 58.3848 27.0215C57.9095 25.9993 57.6654 24.8177 57.6523 23.4766V22.4512C57.6523 21.084 57.89 19.8763 58.3652 18.8281C58.8405 17.7799 59.5111 16.9792 60.377 16.4258C61.2493 15.8659 62.2454 15.5859 63.3652 15.5859C64.5046 15.5859 65.5072 15.8626 66.373 16.416C67.2454 16.9629 67.916 17.7604 68.3848 18.8086C68.8535 19.8503 69.0879 21.0645 69.0879 22.4512V23.3496ZM67.2227 22.4316C67.2227 20.7454 66.8841 19.4531 66.207 18.5547C65.5299 17.6497 64.5827 17.1973 63.3652 17.1973C62.1803 17.1973 61.2461 17.6497 60.5625 18.5547C59.8854 19.4531 59.5371 20.7031 59.5176 22.3047V23.3496C59.5176 24.9837 59.8594 26.2695 60.543 27.207C61.2331 28.138 62.1803 28.6035 63.3848 28.6035C64.5957 28.6035 65.5332 28.1641 66.1973 27.2852C66.8613 26.3997 67.2031 25.1335 67.2227 23.4863V22.4316ZM81.9102 15.7812V25.4492C81.9036 26.7904 81.4805 27.8874 80.6406 28.7402C79.8073 29.5931 78.6745 30.0716 77.2422 30.1758L76.7441 30.1953C75.1882 30.1953 73.9479 29.7754 73.0234 28.9355C72.099 28.0957 71.6302 26.9401 71.6172 25.4688V15.7812H73.4727V25.4102C73.4727 26.4388 73.7559 27.2396 74.3223 27.8125C74.8887 28.3789 75.696 28.6621 76.7441 28.6621C77.8053 28.6621 78.6159 28.3789 79.1758 27.8125C79.7422 27.2461 80.0254 26.4486 80.0254 25.4199V15.7812H81.9102ZM94.6934 17.3242H90.123V30H88.2578V17.3242H83.6973V15.7812H94.6934V17.3242Z" fill="#EB1F1F"/>
</svg>
