<?xml version="1.0" encoding="iso-8859-1"?>
<!-- Generator: Adobe Illustrator 19.0.0, SVG Export Plug-In . SVG Version: 6.00 Build 0)  -->
<svg version="1.1" id="Capa_1" xmlns="http://www.w3.org/2000/svg" xmlns:xlink="http://www.w3.org/1999/xlink" x="0px" y="0px"
	 viewBox="0 0 512 512" style="enable-background:new 0 0 512 512;" xml:space="preserve">
<path style="fill:#F2F2F4;" d="M256,397.213L189.787,331H49.628L246.469,0h19.063l196.841,331h-140.16L256,397.213z"/>
<g>
	<path style="fill:#FF9400;" d="M286,512c-24.813,0-45-20.187-45-45v-51h30v51c0,8.271,6.729,15,15,15s15-6.729,15-15v-1h30v1
		C331,491.813,310.813,512,286,512z"/>
	<path style="fill:#FF9400;" d="M346,442c-24.813,0-45-20.187-45-45v-31h30v31c0,8.271,6.729,15,15,15s15-6.729,15-15v-1h30v1
		C391,421.813,370.813,442,346,442z"/>
</g>
<path style="fill:#FFAB15;" d="M165,493c-24.813,0-45-20.187-45-45v-1h30v1c0,8.271,6.729,15,15,15s15-6.729,15-15v-76h30v76
	C210,472.813,189.813,493,165,493z"/>
<path style="fill:#DFDFE1;" d="M256,397.213L189.787,331l0,0L246.469,0h19.063l196.841,331h-140.16L256,397.213z"/>
<path style="fill:#AFAEB4;" d="M256,397.213V0h9.531l56.682,331L256,397.213z"/>
<g>
</g>
<g>
</g>
<g>
</g>
<g>
</g>
<g>
</g>
<g>
</g>
<g>
</g>
<g>
</g>
<g>
</g>
<g>
</g>
<g>
</g>
<g>
</g>
<g>
</g>
<g>
</g>
<g>
</g>
</svg>
